<?xml version="1.0" encoding="UTF-8"?> <svg xmlns="http://www.w3.org/2000/svg" xmlns:xlink="http://www.w3.org/1999/xlink" width="222" zoomAndPan="magnify" viewBox="0 0 166.5 54" height="72" preserveAspectRatio="xMidYMid meet" version="1.0"><defs><g></g></defs><path fill="#00a2a6" d="M 28.863281 28.878906 C 27.386719 31.753906 22.949219 36.765625 23.359375 41.941406 C 23.769531 47.9375 29.683594 51.386719 34.941406 49.828125 C 40.035156 48.265625 43.238281 42.269531 40.445312 37.011719 C 39.132812 34.464844 36.996094 33.316406 35.269531 32.082031 C 34.285156 31.425781 29.933594 29.125 28.863281 28.878906 Z M 28.617188 43.253906 C 31.820312 48.511719 39.050781 43.746094 36.175781 38.820312 C 33.21875 33.890625 25.660156 38.410156 28.617188 43.253906 Z M 28.617188 43.253906 " fill-opacity="1" fill-rule="evenodd"></path><path fill="#00a2a6" d="M 29.601562 24.609375 C 30.917969 24.773438 31.574219 24.609375 33.054688 24.691406 C 34.367188 24.691406 35.269531 24.855469 36.503906 24.773438 C 38.394531 24.609375 41.351562 24.527344 43.648438 23.046875 C 48.742188 19.597656 48.824219 12.78125 44.71875 8.917969 C 38.886719 3.332031 28.945312 7.195312 29.273438 17.542969 C 29.355469 20.417969 29.4375 22.226562 29.601562 24.609375 Z M 36.175781 19.1875 C 41.433594 22.390625 45.621094 14.914062 40.9375 11.875 C 36.421875 8.917969 31.082031 16.066406 36.175781 19.1875 Z M 36.175781 19.1875 " fill-opacity="1" fill-rule="evenodd"></path><path fill="#00a2a6" d="M 25.332031 25.347656 C 25.003906 23.785156 20.566406 15.738281 17.035156 13.929688 C 11.613281 11.136719 5.617188 14.339844 4.136719 19.515625 C 2.414062 25.839844 8.246094 35.039062 19.171875 28.960938 C 21.222656 27.8125 23.441406 26.660156 25.332031 25.347656 Z M 12.597656 26.332031 C 18.597656 26.660156 18.925781 18.117188 13.175781 17.625 C 11.039062 17.460938 8.65625 19.105469 8.492188 21.734375 C 8.410156 23.785156 9.96875 26.25 12.597656 26.332031 Z M 12.597656 26.332031 " fill-opacity="1" fill-rule="evenodd"></path><g fill="#000000" fill-opacity="1"><g transform="translate(51.099826, 38.547803)"><g><path d="M 9.714844 -18.789062 L 13.699219 -18.789062 L 13.699219 -21.636719 L 2.636719 -21.636719 L 2.636719 -18.789062 L 6.621094 -18.789062 L 6.621094 -2.882812 L 2.636719 -2.882812 L 2.636719 0 L 13.699219 0 L 13.699219 -2.882812 L 9.714844 -2.882812 Z M 9.714844 -18.789062 "></path></g></g></g><g fill="#000000" fill-opacity="1"><g transform="translate(67.404559, 38.547803)"><g><path d="M 6.679688 -18.726562 L 6.679688 0 L 9.777344 0 L 9.777344 -18.726562 L 16.242188 -18.726562 L 16.242188 -21.667969 L 0.183594 -21.667969 L 0.183594 -18.726562 Z M 6.679688 -18.726562 "></path></g></g></g><g fill="#000000" fill-opacity="1"><g transform="translate(83.862533, 38.547803)"><g><path d="M 10.480469 -21.453125 L 2.636719 -21.453125 L 2.636719 0 L 5.761719 0 L 5.761719 -7.140625 L 10.480469 -7.140625 C 15.109375 -7.140625 17.4375 -10.695312 17.4375 -14.28125 C 17.4375 -17.867188 15.109375 -21.453125 10.480469 -21.453125 Z M 10.480469 -10.207031 L 5.761719 -10.207031 L 5.761719 -18.328125 L 10.480469 -18.328125 C 13.085938 -18.328125 14.375 -16.304688 14.375 -14.25 C 14.375 -12.230469 13.085938 -10.207031 10.480469 -10.207031 Z M 10.480469 -10.207031 "></path></g></g></g><g fill="#000000" fill-opacity="1"><g transform="translate(102.067444, 38.547803)"><g><path d="M 1.074219 -10.726562 C 1.074219 -4.535156 6.007812 0.398438 12.199219 0.398438 C 18.390625 0.398438 23.355469 -4.535156 23.355469 -10.726562 C 23.355469 -16.917969 18.390625 -21.882812 12.199219 -21.882812 C 6.007812 -21.882812 1.074219 -16.917969 1.074219 -10.726562 Z M 4.261719 -10.726562 C 4.261719 -15.140625 7.785156 -18.695312 12.199219 -18.695312 C 16.613281 -18.695312 20.167969 -15.140625 20.167969 -10.726562 C 20.167969 -6.3125 16.613281 -2.789062 12.199219 -2.789062 C 7.785156 -2.789062 4.261719 -6.3125 4.261719 -10.726562 Z M 4.261719 -10.726562 "></path></g></g></g><g fill="#000000" fill-opacity="1"><g transform="translate(126.708429, 38.547803)"><g><path d="M 10.449219 -10.878906 L 6.835938 -10.878906 L 6.835938 -9.410156 L 14.648438 0 L 18.664062 0 L 11.890625 -8.0625 C 15.570312 -8.703125 17.4375 -11.585938 17.4375 -14.621094 C 17.4375 -18.019531 15.109375 -21.730469 10.449219 -21.730469 L 2.636719 -21.730469 L 2.636719 0 L 5.699219 0 L 5.699219 -18.605469 L 10.449219 -18.605469 C 13.054688 -18.605469 14.34375 -16.457031 14.34375 -14.621094 C 14.34375 -12.75 13.054688 -10.878906 10.449219 -10.878906 Z M 10.449219 -10.878906 "></path></g></g></g><g fill="#000000" fill-opacity="1"><g transform="translate(144.974634, 38.547803)"><g><path d="M 6.679688 -18.726562 L 6.679688 0 L 9.777344 0 L 9.777344 -18.726562 L 16.242188 -18.726562 L 16.242188 -21.667969 L 0.183594 -21.667969 L 0.183594 -18.726562 Z M 6.679688 -18.726562 "></path></g></g></g></svg> 