<?xml version="1.0" encoding="utf-8"?>
<!-- Generator: Adobe Illustrator 26.1.0, SVG Export Plug-In . SVG Version: 6.00 Build 0)  -->
<svg version="1.1" id="Capa_1" xmlns:serif="http://www.serif.com/"
	 xmlns="http://www.w3.org/2000/svg" xmlns:xlink="http://www.w3.org/1999/xlink" x="0px" y="0px" viewBox="0 0 1080 371.2"
	 style="enable-background:new 0 0 1080 371.2;" xml:space="preserve">
<style type="text/css">
	.st0{fill:#FFFFFF;}
	.st1{fill-rule:evenodd;clip-rule:evenodd;fill:#FFFFFF;}
</style>
<g transform="matrix(1,0,0,1,-202.847,-439.418)">
	<g transform="matrix(2.08302,0,0,2.08302,-2385.26,8.15093)">
		<g transform="matrix(0.480072,0,0,0.480072,1694.78,-5.83333)">
			<g transform="matrix(1.44092,0,0,1.44092,-756.359,475.213)">
				<path class="st0" d="M86.2,160.7v-113l27.8,0.4c21.5,0.3,28.9,0.6,32.6,1.6c19.4,5,31,19,34.4,41.8c3.9,25.4-3.6,49.4-18.9,60.5
					c-10.5,7.6-16.5,8.6-50.2,8.7H86.2z M136.2,147c9-1.2,14.4-3.5,18.6-7.8c7.1-7.1,10.3-16.6,11-32.1c0.8-17.6-2.4-28.3-10.9-36.9
					c-7.4-7.4-10.1-8.1-33.8-8.6l-19.8-0.3V104c0,23.5,0.2,43,0.6,43.3C102.7,148.2,129.5,148,136.2,147z"/>
				<path class="st0" d="M195.8,160.7V47.1h16v113.6H195.8z"/>
				<path class="st0" d="M227.8,160.7V47.9h25.9c14.2,0,29.6,0.4,34.2,0.9c11,1.1,18.4,4.1,23.4,9.4c6.5,6.9,8.2,12.4,8.2,26.1
					c-0.1,22.9-8.6,33.9-29,37.3c-3.1,0.5-14.5,0.8-26.4,0.8l-21-0.1v38.4L227.8,160.7L227.8,160.7z M290.7,107.6
					c5.5-1.8,8.4-4.3,10.7-9.4c1.7-3.7,1.9-5.4,1.9-13.4c0-11.1-1.5-15.3-6.8-19.1c-4.9-3.5-9.1-4.1-32.4-4.1H243v48.2l21.8-0.3
					C282.3,109,287.4,108.7,290.7,107.6z"/>
				<path class="st0" d="M327.8,160.7v-113l31.4,0.4c17.9,0.2,33,0.8,35.2,1.3c10.2,2.2,18.2,8.1,21.9,16.1
					c3.7,7.6,4.4,21.1,1.8,31.4c-3.8,15-10.4,21.2-26,24.3c-3.9,0.7-7.2,1.4-7.4,1.5c-0.2,0.1,4.8,8.5,11,18.6
					c6.2,10.2,11.3,18.7,11.3,18.9s-3.8,0.4-8.2,0.4h-8.3l-11-18.6c-6.2-10.2-11.3-18.8-11.4-19c-0.2-0.2-5.8-0.5-12.6-0.6
					l-12.3-0.2v38.3h-15.4V160.7z M390.7,107.6c5.5-1.8,8.4-4.3,10.7-9.4c1.7-3.7,1.9-5.5,1.9-13c0-11-1.4-15.1-6.3-19.2
					c-4.8-3.9-8.5-4.4-33-4.4h-21v48.2l21.8-0.3C382.3,109,387.4,108.7,390.7,107.6z"/>
				<path class="st0" d="M434.3,104.5l0.2-56.2l30.2-0.2l30.2-0.2v13.6l-22.6,0.2l-22.6,0.2l-0.2,12.6l-0.2,12.6H495v13.6h-45.6
					l0.2,23.4l0.2,23.4l26.8,0.4c14.7,0.2,26.7,0.6,26.6,1c-0.2,0.3-0.2,3.1-0.2,6.2v5.6h-68.8L434.3,104.5z"/>
				<path class="st0" d="M515,160.8V47.9h16.6l4.6,9c19.5,37.9,31.1,60.2,31.5,60.7c0.3,0.3,8.4-15.2,18.1-34.6l17.6-35.2h16.4
					v112.8h-14.4V120c0-22.2-0.2-40.3-0.4-40.1c-0.5,0.5-7.9,16-23,47.7l-8.1,17l-6.7-0.2l-6.8-0.2l-15.5-32.8
					c-8.5-18.1-15.5-32.6-15.5-32.4s-0.1,18.6-0.2,40.8l-0.2,40.4l-7,0.2L515,160.8z"/>
			</g>
			<g transform="matrix(1.41813,0,0,1.41813,-960.048,420.588)">
				<path class="st0" d="M61.6,229.9c-26.4-15.4-48.2-28.5-48.6-29c-0.3-0.5-0.6-26.2-0.4-57.2l0.2-56.4l29.2-17
					c16.1-9.4,37.7-22,48-28.1c10.3-6,19.2-11,19.8-11.2c0.6-0.2,18.4,9.9,39.6,22.3c21.3,12.4,43,25.1,48.4,28.2l9.8,5.7l-0.2,57.1
					l-0.2,57.2l-48.4,28.2C132.3,245.3,110.3,258,110,258C109.8,258,88,245.3,61.6,229.9z M124.2,202.4
					c18.6-4.2,34.3-17.8,41.6-35.6c3.5-8.6,4.6-13.8,4.6-22.8c0.1-13.4-3.1-24-10.6-35c-9.2-13.5-23-22.2-40.2-25.1
					C102,81,83,87,69.4,100c-7.3,6.9-14.4,19.8-17,30.9c-1.4,5.6-1.4,19.9-0.1,25.6c1.5,6.3,5.6,15.7,9,20.8s12.3,13.9,17.5,17.4
					C91.5,203.2,108.3,206,124.2,202.4z"/>
			</g>
			<g transform="matrix(0.61347,0,0,0.61347,-958.614,295.412)">
				<path class="st0" d="M817,722.9L817,722.9c7.8,0,14.7,2.9,20.6,8.7c2.1,2.2,3.7,4.4,4.8,6.4l0.5,0.9c-4,2.1-6.4,3.3-7.2,3.7
					c-0.7-1.4-1.7-3-3.1-4.5c-1.7-1.8-3-2.9-3.9-3.4c-3.6-2.5-7.5-3.7-11.6-3.7c-6.4,0-11.9,2.7-16.5,8.2c-3.2,4.4-4.9,9.1-4.9,14.2
					c0,6.6,2.5,12.3,7.5,17.1c4.1,3.6,8.7,5.3,13.9,5.3c5.9,0,11-2.4,15.4-7.1c2.6-3.1,4.3-6.3,5.1-9.7h-15.3l-0.1-0.1v-7.8l0,0V751
					h16.6h7.5l0.1,0.1c-0.2,4.2-0.5,7-0.8,8.4c-0.9,4.3-2.3,7.9-4.2,10.7c-3.5,5.6-8.5,9.6-14.9,12.1c-3.3,1.1-6.5,1.7-9.7,1.7
					c-7.2,0-13.7-2.6-19.5-7.7c-6.5-6.4-9.7-14-9.7-22.7v-0.2c0-8.6,3.2-16.1,9.7-22.6c1.6-1.3,2.5-2.1,2.9-2.3
					C805.4,724.7,811,722.9,817,722.9z"/>
				<path class="st0" d="M858.3,722.9h7.9l0,0v52.9h26.4l0,0v8l0,0h-34.4l0,0L858.3,722.9L858.3,722.9z"/>
				<path class="st0" d="M926.8,722.9L926.8,722.9c8.1,0,15.2,3.1,21.3,9.4c5.4,6.2,8.1,13.2,8.1,21c0,8.6-3.2,16.1-9.5,22.5
					c-5.9,5.3-12.5,8-19.7,8c-7.3,0-13.8-2.6-19.6-7.8c-2.6-2.7-4.2-4.7-5-6.2c-3.1-5.1-4.7-10.6-4.7-16.5v-0.2
					c0-8.6,3.2-16.1,9.7-22.6l2.8-2.3C915.2,724.7,920.8,722.9,926.8,722.9z M905.6,753.3c0,6.6,2.5,12.3,7.5,17.1
					c4.1,3.6,8.7,5.3,13.9,5.3c6.7,0,12.3-2.9,16.9-8.8c2.9-4.2,4.3-8.6,4.3-13.2v-0.5c0-5.7-2-10.8-6-15.4
					c-4.4-4.6-9.5-6.9-15.2-6.9c-6.4,0-11.9,2.7-16.5,8.2C907.2,743.5,905.6,748.2,905.6,753.3z"/>
				<path class="st0" d="M975.1,756.1v19.6H989c4.8,0,8.1-1.7,10.1-5.2c0.6-1.2,0.8-2.6,0.8-4.4v-1.5c0-3.6-1.9-6.1-5.6-7.4
					c-1.8-0.8-4-1.2-6.6-1.2h-12.4L975.1,756.1z M975.2,730.9V748h11.6c4.9,0,8.3-1.7,10.4-5.2c0.5-1,0.7-2,0.7-2.9V738
					c0-3.1-2.1-5.3-6.4-6.6c-1.2-0.4-3-0.6-5.3-0.6h-11V730.9z M967.2,722.9h20.1c6.5,0,11.6,2.2,15.4,6.5c2.1,2.6,3.1,5.6,3.1,9.2
					v0.9c0,4.6-1.8,8.6-5.3,11.8v0.1c0.8,0.4,1.9,1.3,3.3,2.7c2.6,2.9,4,6.2,4,9.9v3c0,5.7-2.6,10.3-7.7,13.9
					c-2.6,1.4-4.2,2.1-4.9,2.1c-1.7,0.6-4.2,0.9-7.5,0.9h-20.6l-0.1-0.1V723L967.2,722.9z"/>
				<path class="st0" d="M1030.2,762.6h22.3l-11.1-27.5c-0.1,0-1.6,3.7-4.6,11.2L1030.2,762.6z M1045.3,722.9c0.1,0,1.3,3,3.6,8.9
					l21.1,51.9h-0.1h-8.7c-0.1,0-0.5-0.9-1.2-2.8l-4.2-10.3h-28.9l-5.3,13.1h-8.6l0,0l21.1-52l3.7-8.9L1045.3,722.9L1045.3,722.9z"
					/>
				<path class="st0" d="M1078.4,722.9h7.9l0,0v52.9h26.4l0,0v8l0,0h-34.4l0,0L1078.4,722.9L1078.4,722.9z"/>
				<path class="st0" d="M1158.4,722.2h0.7c3.2,0,6.3,0.8,9.3,2.3c1,0.5,1.9,1.1,2.9,1.8c0.5,0.3,1.2,1,2.2,1.9
					c1.1,1.2,1.9,2.1,2.3,2.8c0.4,0.6,0.8,1.2,1.1,1.8l-7.2,3.6c-0.2-0.5-0.7-1.2-1.6-2.2c-2.6-2.7-5.7-4.1-9.5-4.1
					c-3.7,0-6.7,1.1-9,3.3c-0.9,0.9-1.4,1.7-1.6,2.2c-0.7,1.3-1,2.6-1,4v0.3c0,1.9,0.7,3.4,2.1,4.5c0.6,0.5,1.2,0.9,1.8,1.2
					c1.4,0.8,3.6,1.6,6.4,2.4c2.1,0.6,4.6,1.2,7.6,1.9c1.7,0.5,3.1,1,4.2,1.5s2.2,1.2,3.4,2.1c1,0.9,1.9,1.8,2.7,2.7
					c2.2,3,3.3,6.3,3.3,9.9v0.2c0,3.6-1.1,6.9-3.2,10.1c-0.4,0.6-1,1.4-2,2.4c-1.3,1.2-2.3,2-3.2,2.5c-0.9,0.6-1.9,1.1-2.9,1.5
					c-2.9,1.2-5.9,1.8-9,1.8c-4.8,0-9.2-1.4-13.2-4.2c-0.7-0.6-1.5-1.2-2.2-1.9c-1.1-1.1-1.9-2-2.3-2.6c-0.9-1.2-1.5-2.2-2-3.1
					c-0.5-0.9-0.8-1.5-0.8-1.7l7.3-3.4c0.4,1,1.1,2,1.8,3.1c0.4,0.5,0.9,1.2,1.7,1.9c1.1,1,2,1.6,2.6,2c2.2,1.2,4.6,1.9,7.1,1.9h0.3
					c2.5,0,4.8-0.6,7.1-1.8c0.6-0.4,1.2-0.8,1.9-1.4c0.7-0.7,1.3-1.4,1.7-2c0.9-1.6,1.4-3.3,1.4-5.1c0-2.8-1.2-5.1-3.6-6.8
					c-0.7-0.4-1.3-0.8-1.9-1c-1-0.4-2.5-0.9-4.5-1.2c-5.8-1.3-10.1-2.7-12.7-4.1c-5.9-2.9-8.8-7.3-8.8-13.2c0-3.9,1.3-7.5,3.9-10.7
					c0.8-1,1.7-1.9,2.7-2.6c1.1-0.9,2.1-1.5,3-2s2.1-1,3.4-1.4C1154.1,722.5,1156.2,722.2,1158.4,722.2z"/>
				<path class="st0" d="M1188.8,722.9h32.7l0,0v8h-24.8v18.4h19.6l0,0v7.9l0,0h-19.6v18.4h24.8v8l0,0h-32.7l0,0V722.9L1188.8,722.9
					z"/>
				<path class="st0" d="M1233.4,722.9h20.1c6.4,0,11.9,2.4,16.4,7.2c3.2,3.9,4.8,8.2,4.8,12.8c0,5.7-2.3,10.7-6.9,14.8
					c-2.5,2-4.6,3.3-6.5,3.8c0,0.1,2.7,4.8,8.2,14.1l4.7,8l-0.1,0.1h-9.4c-0.1,0-0.9-1.3-2.3-4c-5.9-10.3-9-15.9-9.4-16.8h-11.6
					v20.7l-0.1,0.1h-7.8l-0.1-0.1L1233.4,722.9L1233.4,722.9z M1241.2,731v23.9h12.6c4,0,7.4-1.7,10.3-5c1.6-2.2,2.4-4.5,2.4-6.8
					v-0.5c0-3.6-1.7-6.8-5.2-9.4c-2.2-1.6-5.2-2.4-9-2.4h-10.9L1241.2,731z"/>
				<path class="st0" d="M1278,722.9h9c0.1,0.1,1.4,3.1,3.8,9.3l16,39.4l0,0l19.4-47.9c0.2-0.5,0.3-0.7,0.4-0.7h8.9l0,0l0,0
					l-24.6,59.7c-0.2,0.8-0.4,1.2-0.5,1.2h-7.2c-0.1,0-0.4-0.6-0.8-1.8c-11.5-27.8-17.6-42.6-18.3-44.3
					C1283.8,737.2,1281.8,732.3,1278,722.9L1278,722.9z"/>
				<path class="st0" d="M1344.3,722.9h7.9l0,0v60.8l0,0h-7.9l0,0V722.9L1344.3,722.9z"/>
				<path class="st0" d="M1392.2,722.9L1392.2,722.9c7.9,0,14.8,3.1,20.7,9.2c2.1,2.4,3.6,4.4,4.4,6.2c-0.2,0.2-2.6,1.5-7,3.9
					c-0.7-1.4-1.9-2.9-3.4-4.7c-4.3-4.3-9.2-6.5-14.6-6.5c-5.5,0-10.4,2.2-14.7,6.6c-4.1,4.6-6.2,9.9-6.2,15.9
					c0,6.9,2.6,12.8,7.9,17.6c4,3.2,8.2,4.8,12.6,4.8h0.9c4.9,0,9.4-2,13.7-6c1.8-2,3.1-3.7,3.8-5.2l7,3.7v0.2
					c-0.9,1.7-2.2,3.6-3.7,5.5c-6,6.6-13.2,9.9-21.3,9.9c-8.1,0-15.2-3.2-21.2-9.7c-5.1-6.1-7.6-13-7.6-20.6v-0.2
					c0-7.7,2.6-14.6,7.7-20.7C1377.2,726.1,1384.2,722.9,1392.2,722.9z"/>
				<path class="st0" d="M1427.3,722.9h32.7l0,0v8h-24.8v18.4h19.6l0,0v7.9l0,0h-19.6v18.4h24.8v8l0,0h-32.7l0,0V722.9L1427.3,722.9
					z"/>
				<path class="st0" d="M1488.2,722.2h0.7c3.2,0,6.3,0.8,9.3,2.3c1,0.5,1.9,1.1,2.9,1.8c0.5,0.3,1.2,1,2.2,1.9
					c1.1,1.2,1.9,2.1,2.3,2.8c0.4,0.6,0.8,1.2,1.1,1.8l-7.2,3.6c-0.2-0.5-0.7-1.2-1.6-2.2c-2.6-2.7-5.7-4.1-9.5-4.1
					c-3.7,0-6.7,1.1-9,3.3c-0.9,0.9-1.4,1.7-1.6,2.2c-0.7,1.3-1,2.6-1,4v0.3c0,1.9,0.7,3.4,2.1,4.5c0.6,0.5,1.2,0.9,1.8,1.2
					c1.4,0.8,3.6,1.6,6.4,2.4c2.1,0.6,4.6,1.2,7.6,1.9c1.7,0.5,3.1,1,4.2,1.5s2.2,1.2,3.4,2.1c1,0.9,1.9,1.8,2.7,2.7
					c2.2,3,3.3,6.3,3.3,9.9v0.2c0,3.6-1.1,6.9-3.2,10.1c-0.4,0.6-1,1.4-2,2.4c-1.3,1.2-2.3,2-3.2,2.5c-0.9,0.6-1.9,1.1-2.9,1.5
					c-2.9,1.2-5.9,1.8-9,1.8c-4.8,0-9.2-1.4-13.2-4.2c-0.7-0.6-1.5-1.2-2.2-1.9c-1.1-1.1-1.9-2-2.3-2.6c-0.9-1.2-1.5-2.2-2-3.1
					c-0.5-0.9-0.8-1.5-0.8-1.7l7.3-3.4c0.4,1,1.1,2,1.8,3.1c0.4,0.5,0.9,1.2,1.7,1.9c1.1,1,2,1.6,2.6,2c2.2,1.2,4.6,1.9,7.1,1.9h0.3
					c2.5,0,4.8-0.6,7.1-1.8c0.6-0.4,1.2-0.8,1.9-1.4c0.8-0.7,1.3-1.4,1.7-2c0.9-1.6,1.4-3.3,1.4-5.1c0-2.8-1.2-5.1-3.6-6.8
					c-0.7-0.4-1.3-0.8-1.9-1c-1-0.4-2.5-0.9-4.5-1.2c-5.8-1.3-10.1-2.7-12.7-4.1c-5.9-2.9-8.8-7.3-8.8-13.2c0-3.9,1.3-7.5,3.9-10.7
					c0.8-1,1.7-1.9,2.7-2.6c1.1-0.9,2.1-1.5,3-2s2.1-1,3.4-1.4C1483.9,722.5,1486.1,722.2,1488.2,722.2z"/>
			</g>
			<g transform="matrix(1.0095,0,0,0.514344,-1155.02,352.905)">
				<rect x="1129.9" y="779" class="st1" width="149.7" height="15.7"/>
			</g>
			<g transform="matrix(0.919061,0,0,0.514344,-1469.8,352.905)">
				<rect x="912" y="779" class="st1" width="149.7" height="15.7"/>
			</g>
		</g>
	</g>
</g>
</svg>
